<svg version="1.1" id="Layer_1" xmlns="http://www.w3.org/2000/svg" xmlns:xlink="http://www.w3.org/1999/xlink" x="0" y="0" width="820" height="457.245" xml:space="preserve"><style>.st1{fill:#fff}.st2{fill:#333}.st7,.st8{fill:#faa31b}.st8{fill-rule:evenodd;clip-rule:evenodd}</style><g id="gHhlFG_1_"><image width="960" height="540" id="gHhlFG_2_" xlink:href="63DA97287C763DB4.jpg" transform="translate(-34.953 -1011.355)" overflow="visible"/></g><path opacity=".66" fill="#00a8d6" d="M0 86.764h820v37.85H0z"/><path class="st1" d="M334.639 101.263h8.822v1.869h-6.731v3.094h5.967v1.87h-5.967v3.195h6.816v1.87h-8.907v-11.898zM357.979 101.263l-4.147 5.813 4.318 6.085h-2.465l-3.145-4.538-3.128 4.538h-2.397l4.301-6.052-4.131-5.847h2.465l2.958 4.317 2.975-4.317h2.396zM365.12 103.2h-3.774v-1.938h9.655v1.938h-3.774v9.961h-2.108V103.2zM375.099 101.263h8.822v1.869h-6.731v3.094h5.967v1.87h-5.967v3.195h6.816v1.87h-8.907v-11.898zM388.376 101.263h5.303c1.496 0 2.669.441 3.434 1.189.629.646.986 1.53.986 2.566v.034c0 1.955-1.173 3.128-2.822 3.604l3.213 4.505h-2.482l-2.924-4.147h-2.618v4.147h-2.091v-11.898zm5.151 5.898c1.496 0 2.448-.782 2.448-1.989v-.034c0-1.274-.918-1.972-2.465-1.972h-3.043v3.995h3.06zM402.554 101.263h1.938l6.374 8.227v-8.227h2.057v11.898h-1.751l-6.561-8.465v8.465h-2.057v-11.898zM422.086 101.178h1.938l5.236 11.983h-2.21l-1.207-2.873h-5.626l-1.224 2.873h-2.142l5.235-11.983zm2.992 7.257l-2.057-4.76-2.04 4.76h4.097zM433.188 101.263h2.091v9.995h6.255v1.903h-8.346v-11.898zM456.8 101.178h1.938l5.236 11.983h-2.21l-1.207-2.873h-5.626l-1.224 2.873h-2.142l5.235-11.983zm2.991 7.257l-2.057-4.76-2.04 4.76h4.097zM467.901 101.263h4.692c2.788 0 4.521 1.58 4.521 3.978v.033c0 2.669-2.142 4.063-4.76 4.063h-2.363v3.824H467.9v-11.898zm4.522 6.186c1.581 0 2.567-.884 2.567-2.124v-.034c0-1.394-1.003-2.125-2.567-2.125h-2.431v4.283h2.431zM481.263 101.263h2.091v11.898h-2.091v-11.898z"/><path class="st2" d="M97.821 345.993h3.622c2.152 0 3.49 1.22 3.49 3.07v.026c0 2.061-1.654 3.137-3.674 3.137h-1.824v2.952h-1.614v-9.185zm3.491 4.776c1.22 0 1.981-.683 1.981-1.641v-.026c0-1.075-.774-1.64-1.981-1.64h-1.876v3.307h1.876zM107.397 345.993h4.094c1.155 0 2.06.341 2.651.918.486.499.761 1.182.761 1.981v.026c0 1.51-.906 2.415-2.178 2.782l2.48 3.478h-1.916l-2.257-3.202h-2.021v3.202h-1.614v-9.185zm3.977 4.554c1.155 0 1.89-.604 1.89-1.536v-.025c0-.984-.709-1.522-1.903-1.522h-2.349v3.084h2.362zM117.288 350.612v-.026c0-2.585 1.995-4.751 4.816-4.751 2.821 0 4.79 2.14 4.79 4.725v.026c0 2.585-1.995 4.75-4.816 4.75s-4.79-2.139-4.79-4.724zm7.913 0v-.026c0-1.785-1.299-3.268-3.123-3.268s-3.097 1.456-3.097 3.241v.026c0 1.784 1.299 3.254 3.123 3.254 1.824.001 3.097-1.443 3.097-3.227zM129.252 350.612v-.026c0-2.611 1.955-4.751 4.737-4.751 1.693 0 2.716.591 3.595 1.431l-1.037 1.194c-.735-.683-1.522-1.142-2.572-1.142-1.745 0-3.031 1.443-3.031 3.241v.026c0 1.798 1.273 3.254 3.031 3.254 1.129 0 1.85-.446 2.638-1.181l1.037 1.05c-.958.997-2.008 1.627-3.727 1.627-2.677.001-4.671-2.085-4.671-4.723zM140.153 345.993h6.811v1.443h-5.197v2.389h4.606v1.443h-4.606v2.467h5.262v1.443h-6.876v-9.185zM149.138 353.84l.971-1.154c.879.761 1.771 1.194 2.9 1.194.997 0 1.627-.473 1.627-1.155v-.026c0-.656-.367-1.01-2.073-1.404-1.955-.472-3.058-1.049-3.058-2.742v-.026c0-1.574 1.312-2.664 3.136-2.664 1.339 0 2.402.407 3.333 1.155l-.866 1.221c-.827-.617-1.654-.945-2.493-.945-.945 0-1.496.485-1.496 1.089v.026c0 .709.42 1.023 2.191 1.443 1.942.473 2.939 1.168 2.939 2.69v.026c0 1.719-1.352 2.742-3.281 2.742a5.665 5.665 0 0 1-3.83-1.47zM158.216 353.84l.971-1.154c.879.761 1.771 1.194 2.9 1.194.997 0 1.627-.473 1.627-1.155v-.026c0-.656-.367-1.01-2.073-1.404-1.955-.472-3.058-1.049-3.058-2.742v-.026c0-1.574 1.312-2.664 3.136-2.664 1.339 0 2.402.407 3.333 1.155l-.866 1.221c-.827-.617-1.654-.945-2.493-.945-.945 0-1.496.485-1.496 1.089v.026c0 .709.42 1.023 2.191 1.443 1.942.473 2.939 1.168 2.939 2.69v.026c0 1.719-1.352 2.742-3.281 2.742a5.663 5.663 0 0 1-3.83-1.47zM172.357 350.612v-.026c0-2.625 1.601-4.751 4.015-4.751 2.402 0 3.989 2.1 3.989 4.725v.026c0 2.624-1.601 4.75-4.015 4.75s-3.989-2.1-3.989-4.724zm6.339 0v-.026c0-1.812-.932-3.294-2.349-3.294s-2.323 1.443-2.323 3.268v.026c0 1.811.918 3.294 2.349 3.294s2.323-1.47 2.323-3.268zM184.19 347.567l-1.653.46-.341-1.312 2.48-.787h1.115v9.251h-1.601v-7.612zM76.411 426.443h1.309l2.129 3.309 2.129-3.309h1.309v6.996h-1.229v-5.018l-2.209 3.299h-.04l-2.189-3.278v4.997h-1.209v-6.996zM85.711 426.443h5.187v1.1H86.94v1.818h3.508v1.1H86.94v1.879h4.008v1.1h-5.237v-6.997zM92.561 432.42l.74-.88c.669.58 1.349.91 2.209.91.76 0 1.239-.36 1.239-.88v-.02c0-.5-.28-.77-1.579-1.069-1.489-.36-2.329-.8-2.329-2.089v-.021c0-1.199.999-2.028 2.389-2.028 1.019 0 1.829.31 2.539.879l-.66.93c-.63-.47-1.259-.72-1.899-.72-.72 0-1.139.37-1.139.83v.02c0 .54.32.779 1.669 1.1 1.479.359 2.239.89 2.239 2.049v.02c0 1.31-1.029 2.089-2.499 2.089a4.314 4.314 0 0 1-2.919-1.12zM99.481 432.42l.74-.88c.67.58 1.349.91 2.209.91.76 0 1.239-.36 1.239-.88v-.02c0-.5-.28-.77-1.579-1.069-1.489-.36-2.329-.8-2.329-2.089v-.021c0-1.199.999-2.028 2.389-2.028 1.019 0 1.829.31 2.539.879l-.66.93c-.63-.47-1.259-.72-1.899-.72-.72 0-1.139.37-1.139.83v.02c0 .54.32.779 1.669 1.1 1.479.359 2.239.89 2.239 2.049v.02c0 1.31-1.029 2.089-2.499 2.089a4.314 4.314 0 0 1-2.919-1.12zM109.299 426.393h1.139l3.078 7.046h-1.299l-.71-1.689H108.2l-.72 1.689h-1.259l3.078-7.046zm1.759 4.268l-1.209-2.799-1.199 2.799h2.408zM114.591 429.961v-.02c0-1.959 1.499-3.618 3.608-3.618 1.219 0 1.969.34 2.688.949l-.78.93c-.54-.46-1.069-.749-1.959-.749-1.289 0-2.269 1.129-2.269 2.469v.02c0 1.439.949 2.499 2.379 2.499.66 0 1.259-.21 1.689-.53v-1.31h-1.789v-1.069h2.978v2.938a4.458 4.458 0 0 1-2.918 1.09c-2.188-.001-3.627-1.56-3.627-3.599zM123.361 426.443h5.187v1.1h-3.958v1.818h3.508v1.1h-3.508v1.879h4.008v1.1h-5.237v-6.997zM140.607 433.649l-.84-.75c-.59.41-1.309.66-2.129.66-2.149 0-3.648-1.629-3.648-3.599v-.02c0-1.969 1.519-3.618 3.668-3.618s3.648 1.629 3.648 3.599v.02c0 .789-.26 1.539-.71 2.148l.8.68-.789.88zm-1.739-1.549l-1.209-1.03.79-.899 1.229 1.12c.22-.38.34-.83.34-1.33v-.02c0-1.359-.99-2.488-2.379-2.488s-2.359 1.109-2.359 2.469v.02c0 1.359.99 2.479 2.379 2.479a2.379 2.379 0 0 0 1.209-.321zM143.311 430.471v-4.027h1.229v3.978c0 1.3.67 1.989 1.769 1.989 1.09 0 1.759-.649 1.759-1.939v-4.027h1.229v3.968c0 2.089-1.179 3.139-3.009 3.139-1.818-.002-2.977-1.052-2.977-3.081zM151.61 426.443h5.187v1.1h-3.958v1.818h3.508v1.1h-3.508v1.879h4.008v1.1h-5.237v-6.997zM158.82 430.471v-4.027h1.229v3.978c0 1.3.67 1.989 1.769 1.989 1.09 0 1.759-.649 1.759-1.939v-4.027h1.229v3.968c0 2.089-1.179 3.139-3.009 3.139-1.817-.002-2.977-1.052-2.977-3.081zM167.12 426.443h5.187v1.1h-3.958v1.818h3.508v1.1h-3.508v1.879h4.008v1.1h-5.237v-6.997zM207.16 429.932v-.021c0-.779.65-1.409 1.419-1.409.76 0 1.409.63 1.409 1.409v.021c0 .779-.64 1.399-1.409 1.399-.78 0-1.419-.62-1.419-1.399zM248.75 426.443h5.187v1.1h-3.958v1.818h3.508v1.1h-3.508v1.879h4.008v1.1h-5.237v-6.997zM255.47 426.443h1.359l2.109 5.377 2.099-5.377h1.329l-2.898 7.046h-1.089l-2.909-7.046zM264.189 426.443h5.187v1.1h-3.958v1.818h3.508v1.1h-3.508v1.879h4.008v1.1h-5.237v-6.997zM271.51 426.443h1.139l3.748 4.837v-4.837h1.209v6.996h-1.029l-3.858-4.978v4.978h-1.209v-6.996zM281.749 427.583h-2.219v-1.14h5.677v1.14h-2.219v5.856h-1.239v-5.856zM286.51 432.42l.74-.88c.669.58 1.349.91 2.209.91.76 0 1.239-.36 1.239-.88v-.02c0-.5-.28-.77-1.579-1.069-1.489-.36-2.329-.8-2.329-2.089v-.021c0-1.199.999-2.028 2.389-2.028 1.019 0 1.829.31 2.539.879l-.66.93c-.63-.47-1.259-.72-1.899-.72-.72 0-1.139.37-1.139.83v.02c0 .54.32.779 1.669 1.1 1.479.359 2.239.89 2.239 2.049v.02c0 1.31-1.029 2.089-2.499 2.089a4.312 4.312 0 0 1-2.919-1.12zM326.719 429.932v-.021c0-.779.65-1.409 1.419-1.409.76 0 1.409.63 1.409 1.409v.021c0 .779-.64 1.399-1.409 1.399-.779 0-1.419-.62-1.419-1.399zM364.379 429.961v-.02c0-1.989 1.489-3.618 3.608-3.618 1.289 0 2.069.45 2.739 1.09l-.79.909c-.56-.52-1.159-.869-1.959-.869-1.329 0-2.309 1.099-2.309 2.469v.02c0 1.369.969 2.479 2.309 2.479.859 0 1.409-.34 2.009-.899l.79.8c-.729.76-1.529 1.239-2.838 1.239-2.04-.002-3.559-1.59-3.559-3.6zM372.179 429.961v-.02c0-1.969 1.519-3.618 3.668-3.618s3.648 1.629 3.648 3.599v.02c0 1.969-1.519 3.618-3.668 3.618-2.149-.001-3.648-1.629-3.648-3.599zm6.027 0v-.02c0-1.359-.99-2.488-2.379-2.488s-2.359 1.109-2.359 2.469v.02c0 1.359.99 2.479 2.379 2.479 1.39-.001 2.359-1.101 2.359-2.46zM381.609 426.443h1.139l3.748 4.837v-4.837h1.209v6.996h-1.029l-3.858-4.978v4.978h-1.209v-6.996zM391.848 427.583h-2.219v-1.14h5.677v1.14h-2.219v5.856h-1.239v-5.856zM398.808 426.393h1.139l3.078 7.046h-1.299l-.71-1.689h-3.308l-.72 1.689h-1.259l3.079-7.046zm1.759 4.268l-1.209-2.799-1.199 2.799h2.408zM404.919 426.443h1.229v6.996h-1.229v-6.996zM408.639 426.443h1.139l3.748 4.837v-4.837h1.209v6.996h-1.029l-3.858-4.978v4.978h-1.209v-6.996zM417.159 426.443h5.187v1.1h-3.958v1.818h3.508v1.1h-3.508v1.879h4.008v1.1h-5.237v-6.997zM424.479 426.443h3.118c.879 0 1.569.26 2.019.699.37.38.58.899.58 1.51v.02c0 1.149-.69 1.839-1.659 2.119l1.889 2.648h-1.459l-1.719-2.438h-1.539v2.438h-1.229v-6.996zm3.028 3.468c.88 0 1.439-.46 1.439-1.169v-.021c0-.749-.54-1.159-1.449-1.159h-1.789v2.349h1.799zM431.859 432.42l.74-.88c.669.58 1.349.91 2.209.91.76 0 1.239-.36 1.239-.88v-.02c0-.5-.28-.77-1.579-1.069-1.489-.36-2.329-.8-2.329-2.089v-.021c0-1.199.999-2.028 2.389-2.028 1.019 0 1.829.31 2.539.879l-.66.93c-.63-.47-1.259-.72-1.899-.72-.72 0-1.139.37-1.139.83v.02c0 .54.32.779 1.669 1.1 1.479.359 2.239.89 2.239 2.049v.02c0 1.31-1.029 2.089-2.499 2.089a4.312 4.312 0 0 1-2.919-1.12zM472.068 429.932v-.021c0-.779.649-1.409 1.419-1.409.76 0 1.409.63 1.409 1.409v.021c0 .779-.64 1.399-1.409 1.399-.779 0-1.419-.62-1.419-1.399zM513.658 426.443h1.309l2.129 3.309 2.129-3.309h1.309v6.996h-1.229v-5.018l-2.209 3.299h-.04l-2.189-3.278v4.997h-1.209v-6.996zM523.028 426.443h1.229v6.996h-1.229v-6.996zM526.438 429.961v-.02c0-1.989 1.489-3.618 3.608-3.618 1.289 0 2.069.45 2.739 1.09l-.79.909c-.56-.52-1.159-.869-1.959-.869-1.329 0-2.309 1.099-2.309 2.469v.02c0 1.369.969 2.479 2.309 2.479.859 0 1.409-.34 2.009-.899l.79.8c-.729.76-1.529 1.239-2.838 1.239-2.04-.002-3.559-1.59-3.559-3.6zM534.748 426.443h3.118c.879 0 1.569.26 2.019.699.37.38.58.899.58 1.51v.02c0 1.149-.69 1.839-1.659 2.119l1.889 2.648h-1.459l-1.719-2.438h-1.539v2.438h-1.229v-6.996zm3.028 3.468c.88 0 1.439-.46 1.439-1.169v-.021c0-.749-.54-1.159-1.449-1.159h-1.789v2.349h1.799zM542.288 429.961v-.02c0-1.969 1.519-3.618 3.668-3.618s3.648 1.629 3.648 3.599v.02c0 1.969-1.519 3.618-3.668 3.618-2.149-.001-3.648-1.629-3.648-3.599zm6.027 0v-.02c0-1.359-.99-2.488-2.379-2.488s-2.359 1.109-2.359 2.469v.02c0 1.359.99 2.479 2.379 2.479 1.389-.001 2.359-1.101 2.359-2.46zM551.198 432.42l.74-.88c.67.58 1.349.91 2.209.91.76 0 1.239-.36 1.239-.88v-.02c0-.5-.28-.77-1.579-1.069-1.489-.36-2.329-.8-2.329-2.089v-.021c0-1.199.999-2.028 2.389-2.028 1.019 0 1.829.31 2.539.879l-.66.93c-.63-.47-1.259-.72-1.899-.72-.72 0-1.139.37-1.139.83v.02c0 .54.32.779 1.669 1.1 1.479.359 2.239.89 2.239 2.049v.02c0 1.31-1.029 2.089-2.499 2.089a4.314 4.314 0 0 1-2.919-1.12zM558.688 426.443h5.187v1.1h-3.958v1.818h3.508v1.1h-3.508v1.879h4.008v1.1h-5.237v-6.997zM566.008 426.443h3.118c.879 0 1.569.26 2.019.699.37.38.58.899.58 1.51v.02c0 1.149-.69 1.839-1.659 2.119l1.889 2.648h-1.459l-1.719-2.438h-1.539v2.438h-1.229v-6.996zm3.028 3.468c.88 0 1.439-.46 1.439-1.169v-.021c0-.749-.54-1.159-1.449-1.159h-1.789v2.349h1.799zM573.058 426.443h1.359l2.109 5.377 2.099-5.377h1.329l-2.898 7.046h-1.089l-2.909-7.046zM581.848 426.443h1.229v6.996h-1.229v-6.996zM585.258 429.961v-.02c0-1.989 1.489-3.618 3.608-3.618 1.289 0 2.069.45 2.739 1.09l-.79.909c-.56-.52-1.159-.869-1.959-.869-1.329 0-2.309 1.099-2.309 2.469v.02c0 1.369.969 2.479 2.309 2.479.859 0 1.409-.34 2.009-.899l.79.8c-.729.76-1.529 1.239-2.838 1.239-2.04-.002-3.559-1.59-3.559-3.6zM593.567 426.443h5.187v1.1h-3.958v1.818h3.508v1.1h-3.508v1.879h4.008v1.1h-5.237v-6.997zM600.418 432.42l.74-.88c.67.58 1.349.91 2.209.91.76 0 1.239-.36 1.239-.88v-.02c0-.5-.28-.77-1.579-1.069-1.489-.36-2.329-.8-2.329-2.089v-.021c0-1.199.999-2.028 2.389-2.028 1.019 0 1.829.31 2.539.879l-.66.93c-.63-.47-1.259-.72-1.899-.72-.72 0-1.139.37-1.139.83v.02c0 .54.32.779 1.669 1.1 1.479.359 2.239.89 2.239 2.049v.02c0 1.31-1.029 2.089-2.499 2.089a4.312 4.312 0 0 1-2.919-1.12zM640.627 429.932v-.021c0-.779.65-1.409 1.419-1.409.76 0 1.409.63 1.409 1.409v.021c0 .779-.64 1.399-1.409 1.399-.779 0-1.419-.62-1.419-1.399zM682.217 426.443h5.187v1.1h-3.958v1.818h3.508v1.1h-3.508v1.879h4.008v1.1h-5.237v-6.997zM691.256 427.583h-2.219v-1.14h5.677v1.14h-2.219v5.856h-1.239v-5.856zM695.947 429.961v-.02c0-1.989 1.489-3.618 3.608-3.618 1.289 0 2.069.45 2.739 1.09l-.79.909c-.56-.52-1.159-.869-1.959-.869-1.329 0-2.309 1.099-2.309 2.469v.02c0 1.369.969 2.479 2.309 2.479.859 0 1.409-.34 2.009-.899l.79.8c-.729.76-1.529 1.239-2.838 1.239-2.04-.002-3.559-1.59-3.559-3.6zM704.037 432.06h1.329v1.379h-1.329v-1.379z"/><linearGradient id="SVGID_1_" gradientUnits="userSpaceOnUse" x1="70.271" y1="291.568" x2="217.185" y2="216.943" gradientTransform="matrix(.9863 0 0 1.1211 .058 64.867)"><stop offset="0" stop-color="#17c9c0"/><stop offset=".168" stop-color="#00a9d7"/><stop offset=".564" stop-color="#1cd0bb"/><stop offset="1" stop-color="#0fbec8"/></linearGradient><path d="M222.791 372.664H60.843v-45.517h161.948v45.517zm-158.91-3.037h155.872v-39.442H63.881v39.442z" fill="url(#SVGID_1_)"/><g><path class="st2" d="M272.325 345.993h3.622c2.152 0 3.491 1.22 3.491 3.07v.026c0 2.061-1.653 3.137-3.674 3.137h-1.824v2.952h-1.614v-9.185zm3.491 4.776c1.22 0 1.981-.683 1.981-1.641v-.026c0-1.075-.774-1.64-1.981-1.64h-1.876v3.307h1.876zM281.901 345.993h4.094c1.155 0 2.06.341 2.651.918.486.499.761 1.182.761 1.981v.026c0 1.51-.905 2.415-2.178 2.782l2.48 3.478h-1.916l-2.257-3.202h-2.021v3.202h-1.614v-9.185zm3.976 4.554c1.155 0 1.89-.604 1.89-1.536v-.025c0-.984-.709-1.522-1.903-1.522h-2.349v3.084h2.362zM291.792 350.612v-.026c0-2.585 1.995-4.751 4.816-4.751 2.822 0 4.79 2.14 4.79 4.725v.026c0 2.585-1.995 4.75-4.816 4.75s-4.79-2.139-4.79-4.724zm7.913 0v-.026c0-1.785-1.299-3.268-3.123-3.268s-3.097 1.456-3.097 3.241v.026c0 1.784 1.299 3.254 3.123 3.254 1.824.001 3.097-1.443 3.097-3.227zM303.755 350.612v-.026c0-2.611 1.955-4.751 4.737-4.751 1.693 0 2.716.591 3.596 1.431l-1.037 1.194c-.735-.683-1.522-1.142-2.572-1.142-1.745 0-3.031 1.443-3.031 3.241v.026c0 1.798 1.273 3.254 3.031 3.254 1.129 0 1.85-.446 2.638-1.181l1.037 1.05c-.958.997-2.008 1.627-3.727 1.627-2.677.001-4.672-2.085-4.672-4.723zM314.656 345.993h6.811v1.443h-5.197v2.389h4.606v1.443h-4.606v2.467h5.262v1.443h-6.876v-9.185zM323.642 353.84l.971-1.154c.879.761 1.771 1.194 2.9 1.194.998 0 1.627-.473 1.627-1.155v-.026c0-.656-.368-1.01-2.073-1.404-1.955-.472-3.058-1.049-3.058-2.742v-.026c0-1.574 1.312-2.664 3.136-2.664 1.338 0 2.401.407 3.333 1.155l-.866 1.221c-.827-.617-1.653-.945-2.493-.945-.945 0-1.496.485-1.496 1.089v.026c0 .709.42 1.023 2.192 1.443 1.942.473 2.939 1.168 2.939 2.69v.026c0 1.719-1.352 2.742-3.281 2.742a5.664 5.664 0 0 1-3.831-1.47zM332.72 353.84l.971-1.154c.879.761 1.771 1.194 2.9 1.194.998 0 1.627-.473 1.627-1.155v-.026c0-.656-.368-1.01-2.073-1.404-1.955-.472-3.058-1.049-3.058-2.742v-.026c0-1.574 1.312-2.664 3.136-2.664 1.338 0 2.401.407 3.333 1.155l-.866 1.221c-.827-.617-1.653-.945-2.493-.945-.945 0-1.496.485-1.496 1.089v.026c0 .709.42 1.023 2.192 1.443 1.942.473 2.939 1.168 2.939 2.69v.026c0 1.719-1.352 2.742-3.281 2.742a5.662 5.662 0 0 1-3.831-1.47zM346.861 350.612v-.026c0-2.625 1.601-4.751 4.015-4.751 2.401 0 3.989 2.1 3.989 4.725v.026c0 2.624-1.601 4.75-4.015 4.75s-3.989-2.1-3.989-4.724zm6.338 0v-.026c0-1.812-.932-3.294-2.349-3.294s-2.323 1.443-2.323 3.268v.026c0 1.811.919 3.294 2.349 3.294 1.431 0 2.323-1.47 2.323-3.268zM356.936 353.906l3.162-2.69c1.26-1.076 1.719-1.653 1.719-2.48 0-.905-.643-1.43-1.483-1.43s-1.417.459-2.113 1.377l-1.155-.905c.879-1.22 1.745-1.916 3.386-1.916 1.798 0 3.031 1.103 3.031 2.743v.026c0 1.443-.761 2.23-2.388 3.556l-1.89 1.575h4.37v1.417h-6.64v-1.273z"/><linearGradient id="SVGID_2_" gradientUnits="userSpaceOnUse" x1="244.364" y1="291.977" x2="392.891" y2="216.534" gradientTransform="matrix(.9863 0 0 1.1211 .058 64.867)"><stop offset="0" stop-color="#17c9c0"/><stop offset=".168" stop-color="#00a9d7"/><stop offset=".564" stop-color="#1cd0bb"/><stop offset="1" stop-color="#0fbec8"/></linearGradient><path d="M396.294 372.664H232.347v-45.517h163.948v45.517zm-160.91-3.037h157.872v-39.442H235.384v39.442z" fill="url(#SVGID_2_)"/></g><g><path class="st2" d="M442.18 345.993h3.622c2.152 0 3.491 1.22 3.491 3.07v.026c0 2.061-1.653 3.137-3.674 3.137h-1.824v2.952h-1.614v-9.185zm3.49 4.776c1.22 0 1.981-.683 1.981-1.641v-.026c0-1.075-.774-1.64-1.981-1.64h-1.876v3.307h1.876zM451.756 345.993h4.094c1.155 0 2.06.341 2.651.918.486.499.761 1.182.761 1.981v.026c0 1.51-.905 2.415-2.178 2.782l2.48 3.478h-1.916l-2.257-3.202h-2.021v3.202h-1.614v-9.185zm3.976 4.554c1.155 0 1.89-.604 1.89-1.536v-.025c0-.984-.709-1.522-1.903-1.522h-2.349v3.084h2.362zM461.647 350.612v-.026c0-2.585 1.995-4.751 4.816-4.751 2.822 0 4.79 2.14 4.79 4.725v.026c0 2.585-1.995 4.75-4.816 4.75s-4.79-2.139-4.79-4.724zm7.913 0v-.026c0-1.785-1.299-3.268-3.123-3.268s-3.097 1.456-3.097 3.241v.026c0 1.784 1.299 3.254 3.123 3.254 1.824.001 3.097-1.443 3.097-3.227zM473.61 350.612v-.026c0-2.611 1.955-4.751 4.737-4.751 1.693 0 2.716.591 3.596 1.431l-1.037 1.194c-.735-.683-1.522-1.142-2.572-1.142-1.745 0-3.031 1.443-3.031 3.241v.026c0 1.798 1.273 3.254 3.031 3.254 1.129 0 1.85-.446 2.638-1.181l1.037 1.05c-.958.997-2.008 1.627-3.727 1.627-2.677.001-4.672-2.085-4.672-4.723zM484.511 345.993h6.811v1.443h-5.197v2.389h4.606v1.443h-4.606v2.467h5.262v1.443h-6.876v-9.185zM493.497 353.84l.971-1.154c.879.761 1.771 1.194 2.9 1.194.998 0 1.627-.473 1.627-1.155v-.026c0-.656-.368-1.01-2.073-1.404-1.955-.472-3.058-1.049-3.058-2.742v-.026c0-1.574 1.312-2.664 3.136-2.664 1.338 0 2.401.407 3.333 1.155l-.866 1.221c-.827-.617-1.653-.945-2.493-.945-.945 0-1.496.485-1.496 1.089v.026c0 .709.42 1.023 2.192 1.443 1.942.473 2.939 1.168 2.939 2.69v.026c0 1.719-1.352 2.742-3.281 2.742a5.664 5.664 0 0 1-3.831-1.47zM502.574 353.84l.971-1.154c.879.761 1.771 1.194 2.9 1.194.998 0 1.627-.473 1.627-1.155v-.026c0-.656-.368-1.01-2.073-1.404-1.955-.472-3.058-1.049-3.058-2.742v-.026c0-1.574 1.312-2.664 3.136-2.664 1.338 0 2.401.407 3.333 1.155l-.866 1.221c-.827-.617-1.653-.945-2.493-.945-.945 0-1.496.485-1.496 1.089v.026c0 .709.42 1.023 2.192 1.443 1.942.473 2.939 1.168 2.939 2.69v.026c0 1.719-1.352 2.742-3.281 2.742a5.666 5.666 0 0 1-3.831-1.47zM516.716 350.612v-.026c0-2.625 1.601-4.751 4.015-4.751 2.401 0 3.989 2.1 3.989 4.725v.026c0 2.624-1.601 4.75-4.015 4.75s-3.989-2.1-3.989-4.724zm6.338 0v-.026c0-1.812-.932-3.294-2.349-3.294s-2.323 1.443-2.323 3.268v.026c0 1.811.919 3.294 2.349 3.294 1.431 0 2.323-1.47 2.323-3.268zM526.712 353.722l1.129-1.05c.656.774 1.391 1.208 2.415 1.208.906 0 1.588-.552 1.588-1.392v-.026c0-.905-.827-1.417-2.113-1.417h-.748l-.262-1.011 2.48-2.637h-3.976v-1.404h6.076v1.207l-2.559 2.625c1.391.17 2.703.879 2.703 2.571v.026c0 1.693-1.299 2.913-3.215 2.913-1.602.001-2.744-.668-3.518-1.613z"/><linearGradient id="SVGID_3_" gradientUnits="userSpaceOnUse" x1="420.278" y1="291.977" x2="568.804" y2="216.534" gradientTransform="matrix(.9863 0 0 1.1211 .058 64.867)"><stop offset="0" stop-color="#17c9c0"/><stop offset=".168" stop-color="#00a9d7"/><stop offset=".564" stop-color="#1cd0bb"/><stop offset="1" stop-color="#0fbec8"/></linearGradient><path d="M569.798 372.664H405.85v-45.517h163.947v45.517zm-160.91-3.037H566.76v-39.442H408.888v39.442z" fill="url(#SVGID_3_)"/></g><g><path class="st2" d="M616.332 345.993h3.622c2.152 0 3.491 1.22 3.491 3.07v.026c0 2.061-1.653 3.137-3.674 3.137h-1.824v2.952h-1.614v-9.185zm3.491 4.776c1.22 0 1.981-.683 1.981-1.641v-.026c0-1.075-.774-1.64-1.981-1.64h-1.876v3.307h1.876zM625.908 345.993h4.094c1.155 0 2.06.341 2.651.918.486.499.761 1.182.761 1.981v.026c0 1.51-.905 2.415-2.178 2.782l2.48 3.478H631.8l-2.257-3.202h-2.021v3.202h-1.614v-9.185zm3.976 4.554c1.155 0 1.89-.604 1.89-1.536v-.025c0-.984-.709-1.522-1.903-1.522h-2.349v3.084h2.362zM635.799 350.612v-.026c0-2.585 1.995-4.751 4.816-4.751 2.822 0 4.79 2.14 4.79 4.725v.026c0 2.585-1.995 4.75-4.816 4.75s-4.79-2.139-4.79-4.724zm7.913 0v-.026c0-1.785-1.299-3.268-3.123-3.268s-3.097 1.456-3.097 3.241v.026c0 1.784 1.299 3.254 3.123 3.254 1.824.001 3.097-1.443 3.097-3.227zM647.762 350.612v-.026c0-2.611 1.955-4.751 4.737-4.751 1.693 0 2.716.591 3.596 1.431l-1.037 1.194c-.735-.683-1.522-1.142-2.572-1.142-1.745 0-3.031 1.443-3.031 3.241v.026c0 1.798 1.273 3.254 3.031 3.254 1.129 0 1.85-.446 2.638-1.181l1.037 1.05c-.958.997-2.008 1.627-3.727 1.627-2.677.001-4.672-2.085-4.672-4.723zM658.663 345.993h6.811v1.443h-5.197v2.389h4.606v1.443h-4.606v2.467h5.262v1.443h-6.876v-9.185zM667.649 353.84l.971-1.154c.879.761 1.771 1.194 2.9 1.194.998 0 1.627-.473 1.627-1.155v-.026c0-.656-.368-1.01-2.073-1.404-1.955-.472-3.058-1.049-3.058-2.742v-.026c0-1.574 1.312-2.664 3.136-2.664 1.338 0 2.401.407 3.333 1.155l-.866 1.221c-.827-.617-1.653-.945-2.493-.945-.945 0-1.496.485-1.496 1.089v.026c0 .709.42 1.023 2.192 1.443 1.942.473 2.939 1.168 2.939 2.69v.026c0 1.719-1.352 2.742-3.281 2.742a5.664 5.664 0 0 1-3.831-1.47zM676.727 353.84l.971-1.154c.879.761 1.771 1.194 2.9 1.194.998 0 1.627-.473 1.627-1.155v-.026c0-.656-.368-1.01-2.073-1.404-1.955-.472-3.058-1.049-3.058-2.742v-.026c0-1.574 1.312-2.664 3.136-2.664 1.338 0 2.401.407 3.333 1.155l-.866 1.221c-.827-.617-1.653-.945-2.493-.945-.945 0-1.496.485-1.496 1.089v.026c0 .709.42 1.023 2.192 1.443 1.942.473 2.939 1.168 2.939 2.69v.026c0 1.719-1.352 2.742-3.281 2.742a5.662 5.662 0 0 1-3.831-1.47zM690.868 350.612v-.026c0-2.625 1.601-4.751 4.015-4.751 2.401 0 3.989 2.1 3.989 4.725v.026c0 2.624-1.601 4.75-4.015 4.75s-3.989-2.1-3.989-4.724zm6.338 0v-.026c0-1.812-.932-3.294-2.349-3.294s-2.323 1.443-2.323 3.268v.026c0 1.811.919 3.294 2.349 3.294 1.431 0 2.323-1.47 2.323-3.268zM705.837 353.118h-4.632l-.302-1.154 5.105-6.036h1.378v5.865h1.312v1.325h-1.312v2.061h-1.549v-2.061zm0-1.325v-3.635l-3.018 3.635h3.018z"/><linearGradient id="SVGID_4_" gradientUnits="userSpaceOnUse" x1="595.879" y1="291.363" x2="741.988" y2="217.148" gradientTransform="matrix(.9863 0 0 1.1211 .058 64.867)"><stop offset="0" stop-color="#17c9c0"/><stop offset=".168" stop-color="#00a9d7"/><stop offset=".564" stop-color="#1cd0bb"/><stop offset="1" stop-color="#0fbec8"/></linearGradient><path d="M740.301 372.664H579.354v-45.517h160.948v45.517zm-157.91-3.037h154.872v-39.442H582.391v39.442z" fill="url(#SVGID_4_)"/></g><g><path class="st2" d="M633.962 67.261c-5.62 0-10.193-4.573-10.193-10.193A10.14 10.14 0 0 1 632.361 47a17.493 17.493 0 0 1-1.092-6.118c0-8.465 6.036-15.738 14.352-17.296a17.685 17.685 0 0 1 3.257-.313c6.427 0 12.361 3.549 15.436 9.133a9.8 9.8 0 0 1 6.056-2.074c5.149 0 9.39 3.963 9.833 8.999a13.928 13.928 0 0 1 8.658 3.733c2.875 2.68 4.459 6.307 4.459 10.215 0 7.012-5.209 12.995-12.117 13.919a.805.805 0 0 1-.119.009l-41.116.048-6.006.006zm14.915-42.189c-.944 0-1.928.095-2.925.282-7.465 1.397-12.884 7.928-12.884 15.526 0 2.275.473 4.472 1.407 6.527a.902.902 0 0 1-.79 1.272 8.354 8.354 0 0 0-8.116 8.388c0 4.628 3.765 8.393 8.393 8.393l6.003-.007 41.057-.049c5.989-.83 10.498-6.033 10.498-12.127 0-3.403-1.38-6.562-3.886-8.898a12.133 12.133 0 0 0-8.293-3.276.9.9 0 0 1-.9-.9c0-4.451-3.621-8.071-8.072-8.071a8.022 8.022 0 0 0-5.698 2.354.882.882 0 0 1-.793.248.899.899 0 0 1-.659-.507c-2.584-5.562-8.213-9.155-14.342-9.155z"/></g><g><path class="st2" d="M707.505 46.574l.958-1.14c.868.751 1.749 1.179 2.863 1.179.985 0 1.606-.467 1.606-1.141v-.025c0-.647-.363-.998-2.047-1.387-1.93-.466-3.019-1.036-3.019-2.707v-.026c0-1.555 1.296-2.63 3.096-2.63 1.322 0 2.371.402 3.291 1.141l-.855 1.204c-.816-.608-1.632-.933-2.461-.933-.933 0-1.477.479-1.477 1.075v.026c0 .699.415 1.011 2.164 1.425 1.917.467 2.902 1.153 2.902 2.656v.025c0 1.697-1.334 2.708-3.239 2.708a5.58 5.58 0 0 1-3.782-1.45zM716.575 45.927V45.9c0-1.477 1.153-2.202 2.824-2.202.764 0 1.309.116 1.84.285v-.169c0-.972-.596-1.489-1.697-1.489-.764 0-1.334.168-1.956.428l-.415-1.231a5.833 5.833 0 0 1 2.578-.557c1.023 0 1.788.271 2.267.765.505.492.738 1.218.738 2.111v4.055h-1.529v-.856c-.466.558-1.179.998-2.228.998-1.282 0-2.422-.738-2.422-2.111zm4.689-.493v-.467a4.358 4.358 0 0 0-1.554-.272c-1.01 0-1.606.428-1.606 1.141v.025c0 .661.583 1.037 1.334 1.037 1.036 0 1.826-.596 1.826-1.464zM724.983 45.927V45.9c0-1.477 1.153-2.202 2.824-2.202.764 0 1.309.116 1.84.285v-.169c0-.972-.596-1.489-1.697-1.489-.764 0-1.334.168-1.956.428l-.415-1.231a5.833 5.833 0 0 1 2.578-.557c1.023 0 1.788.271 2.267.765.505.492.738 1.218.738 2.111v4.055h-1.529v-.856c-.466.558-1.179.998-2.228.998-1.282 0-2.422-.738-2.422-2.111zm4.69-.493v-.467a4.358 4.358 0 0 0-1.554-.272c-1.01 0-1.606.428-1.606 1.141v.025c0 .661.583 1.037 1.334 1.037 1.036 0 1.826-.596 1.826-1.464zM733.418 46.574l.958-1.14c.868.751 1.749 1.179 2.863 1.179.985 0 1.606-.467 1.606-1.141v-.025c0-.647-.363-.998-2.047-1.387-1.93-.466-3.019-1.036-3.019-2.707v-.026c0-1.555 1.296-2.63 3.096-2.63 1.322 0 2.371.402 3.291 1.141l-.855 1.204c-.816-.608-1.632-.933-2.461-.933-.933 0-1.477.479-1.477 1.075v.026c0 .699.415 1.011 2.164 1.425 1.917.467 2.902 1.153 2.902 2.656v.025c0 1.697-1.334 2.708-3.239 2.708a5.576 5.576 0 0 1-3.782-1.45zM711.327 54.31h1.477l3.99 9.133h-1.684l-.92-2.189h-4.288l-.933 2.189h-1.632l3.99-9.133zm2.28 5.532l-1.567-3.627-1.555 3.627h3.122zM719.153 54.375h3.575c2.125 0 3.446 1.205 3.446 3.031v.026c0 2.033-1.632 3.096-3.627 3.096h-1.801v2.915h-1.593v-9.068zm3.446 4.716c1.205 0 1.956-.674 1.956-1.619v-.026c0-1.062-.764-1.619-1.956-1.619h-1.853v3.265h1.853zM728.611 54.375h3.575c2.125 0 3.446 1.205 3.446 3.031v.026c0 2.033-1.632 3.096-3.627 3.096h-1.801v2.915h-1.593v-9.068zm3.446 4.716c1.205 0 1.956-.674 1.956-1.619v-.026c0-1.062-.764-1.619-1.956-1.619h-1.853v3.265h1.853zM737.46 62.122l.958-1.14c.868.751 1.749 1.179 2.863 1.179.985 0 1.606-.467 1.606-1.141v-.025c0-.647-.363-.998-2.047-1.387-1.93-.466-3.019-1.036-3.019-2.707v-.026c0-1.555 1.296-2.63 3.096-2.63 1.322 0 2.371.402 3.291 1.141l-.855 1.204c-.816-.608-1.632-.933-2.461-.933-.933 0-1.477.479-1.477 1.075v.026c0 .699.415 1.011 2.164 1.425 1.917.467 2.902 1.153 2.902 2.656v.025c0 1.697-1.334 2.708-3.239 2.708a5.58 5.58 0 0 1-3.782-1.45z"/></g><g><path class="st2" d="M483.703 38.827h3.575c2.125 0 3.446 1.205 3.446 3.031v.026c0 2.033-1.632 3.096-3.627 3.096h-1.801v2.915h-1.593v-9.068zm3.445 4.716c1.205 0 1.956-.674 1.956-1.619v-.026c0-1.062-.764-1.619-1.956-1.619h-1.853v3.265h1.853zM495.467 38.763h1.477l3.99 9.133h-1.684l-.92-2.189h-4.288l-.933 2.189h-1.632l3.99-9.133zm2.28 5.531l-1.567-3.627-1.555 3.627h3.122zM503.293 38.827h4.042c1.14 0 2.034.337 2.617.907.479.492.751 1.166.751 1.956v.025c0 1.49-.894 2.384-2.15 2.747l2.448 3.433h-1.891l-2.228-3.161h-1.995v3.161h-1.593v-9.068zm3.925 4.495c1.14 0 1.865-.596 1.865-1.516v-.025c0-.972-.7-1.503-1.878-1.503h-2.319v3.044h2.332zM515.653 40.304h-2.876v-1.477h7.358v1.477h-2.876v7.592h-1.606v-7.592zM522.624 38.827h1.477l4.858 6.271v-6.271h1.568v9.068h-1.334l-5-6.451v6.451h-1.567v-9.068zM533.663 38.827h6.723v1.425h-5.13v2.358h4.547v1.425h-4.547v2.436h5.195v1.425h-6.788v-9.069zM543.146 38.827h4.042c1.14 0 2.034.337 2.617.907.479.492.751 1.166.751 1.956v.025c0 1.49-.894 2.384-2.15 2.747l2.448 3.433h-1.891l-2.228-3.161h-1.995v3.161h-1.593v-9.068zm3.926 4.495c1.14 0 1.865-.596 1.865-1.516v-.025c0-.972-.7-1.503-1.878-1.503h-2.319v3.044h2.332zM486.915 54.31h1.477l3.99 9.133h-1.684l-.92-2.189h-4.288l-.933 2.189h-1.632l3.99-9.133zm2.28 5.532l-1.567-3.627-1.555 3.627h3.122zM494.741 54.375h3.575c2.125 0 3.446 1.205 3.446 3.031v.026c0 2.033-1.632 3.096-3.627 3.096h-1.801v2.915h-1.593v-9.068zm3.446 4.716c1.205 0 1.956-.674 1.956-1.619v-.026c0-1.062-.764-1.619-1.956-1.619h-1.853v3.265h1.853zM504.2 54.375h3.575c2.125 0 3.446 1.205 3.446 3.031v.026c0 2.033-1.632 3.096-3.627 3.096h-1.801v2.915H504.2v-9.068zm3.446 4.716c1.205 0 1.956-.674 1.956-1.619v-.026c0-1.062-.764-1.619-1.956-1.619h-1.853v3.265h1.853zM513.049 62.122l.958-1.14c.868.751 1.749 1.179 2.863 1.179.985 0 1.606-.467 1.606-1.141v-.025c0-.647-.363-.998-2.047-1.387-1.93-.466-3.019-1.036-3.019-2.707v-.026c0-1.555 1.296-2.63 3.096-2.63 1.322 0 2.371.402 3.291 1.141l-.855 1.204c-.816-.608-1.632-.933-2.461-.933-.933 0-1.477.479-1.477 1.075v.026c0 .699.415 1.011 2.164 1.425 1.917.467 2.902 1.153 2.902 2.656v.025c0 1.697-1.334 2.708-3.239 2.708a5.576 5.576 0 0 1-3.782-1.45z"/></g><g><path class="st2" d="M312.93 38.827h1.723l2.163 6.724 2.229-6.749h1.347l2.228 6.749 2.164-6.724h1.671l-3.148 9.133h-1.386l-2.229-6.516-2.228 6.516h-1.374l-3.16-9.133zM328.892 38.827h6.724v1.425h-5.13v2.358h4.547v1.425h-4.547v2.436h5.195v1.425h-6.788v-9.069zM338.376 38.827h4.067c1.037 0 1.853.285 2.371.804.401.401.609.894.609 1.502v.026c0 1.088-.622 1.671-1.296 2.021 1.062.363 1.801.972 1.801 2.202v.026c0 1.619-1.334 2.487-3.355 2.487h-4.197v-9.068zm5.454 2.565c0-.713-.57-1.153-1.593-1.153h-2.293v2.409h2.176c1.023 0 1.71-.401 1.71-1.23v-.026zm-1.36 2.604h-2.526v2.487h2.643c1.088 0 1.749-.428 1.749-1.243v-.026c-.001-.765-.609-1.218-1.866-1.218zM316.842 54.31h1.477l3.99 9.133h-1.684l-.919-2.189h-4.288l-.933 2.189h-1.632l3.989-9.133zm2.281 5.532l-1.567-3.627L316 59.842h3.123zM324.668 54.375h3.576c2.125 0 3.446 1.205 3.446 3.031v.026c0 2.033-1.632 3.096-3.627 3.096h-1.801v2.915h-1.593v-9.068zm3.446 4.716c1.205 0 1.957-.674 1.957-1.619v-.026c0-1.062-.765-1.619-1.957-1.619h-1.853v3.265h1.853zM334.127 54.375h3.575c2.125 0 3.446 1.205 3.446 3.031v.026c0 2.033-1.632 3.096-3.627 3.096h-1.801v2.915h-1.593v-9.068zm3.446 4.716c1.205 0 1.956-.674 1.956-1.619v-.026c0-1.062-.764-1.619-1.956-1.619h-1.853v3.265h1.853zM342.976 62.122l.958-1.14c.868.751 1.749 1.179 2.863 1.179.985 0 1.606-.467 1.606-1.141v-.025c0-.647-.363-.998-2.047-1.387-1.93-.466-3.019-1.036-3.019-2.707v-.026c0-1.555 1.296-2.63 3.096-2.63 1.322 0 2.371.402 3.291 1.141l-.855 1.204c-.816-.608-1.632-.933-2.461-.933-.933 0-1.477.479-1.477 1.075v.026c0 .699.415 1.011 2.164 1.425 1.917.467 2.902 1.153 2.902 2.656v.025c0 1.697-1.334 2.708-3.239 2.708a5.578 5.578 0 0 1-3.782-1.45z"/></g><g><path class="st2" d="M120.793 38.827h1.697l2.759 4.288 2.759-4.288h1.697v9.068h-1.594v-6.503l-2.863 4.274h-.052l-2.837-4.249v6.478h-1.567v-9.068zM132.441 43.388v-.026c0-2.552 1.969-4.689 4.754-4.689 2.785 0 4.728 2.111 4.728 4.663v.026c0 2.552-1.969 4.689-4.754 4.689-2.785 0-4.728-2.112-4.728-4.663zm7.811 0v-.026c0-1.762-1.282-3.226-3.083-3.226-1.801 0-3.057 1.438-3.057 3.199v.026c0 1.762 1.282 3.213 3.083 3.213 1.801 0 3.057-1.425 3.057-3.186zM144.659 38.827h4.068c1.036 0 1.853.285 2.371.804.402.401.609.894.609 1.502v.026c0 1.088-.622 1.671-1.296 2.021 1.062.363 1.801.972 1.801 2.202v.026c0 1.619-1.334 2.487-3.355 2.487h-4.197v-9.068zm5.454 2.565c0-.713-.57-1.153-1.594-1.153h-2.293v2.409h2.177c1.023 0 1.71-.401 1.71-1.23v-.026zm-1.361 2.604h-2.526v2.487h2.643c1.088 0 1.749-.428 1.749-1.243v-.026c0-.765-.609-1.218-1.866-1.218zM154.907 38.827h1.594v9.068h-1.594v-9.068zM159.726 38.827h1.593v7.617h4.767v1.451h-6.361v-9.068zM168.55 38.827h6.723v1.425h-5.13v2.358h4.547v1.425h-4.547v2.436h5.195v1.425h-6.788v-9.069zM124.006 54.31h1.477l3.99 9.133h-1.684l-.92-2.189h-4.288l-.933 2.189h-1.632l3.99-9.133zm2.28 5.532l-1.567-3.627-1.555 3.627h3.122zM131.832 54.375h3.575c2.125 0 3.446 1.205 3.446 3.031v.026c0 2.033-1.632 3.096-3.627 3.096h-1.801v2.915h-1.593v-9.068zm3.446 4.716c1.205 0 1.956-.674 1.956-1.619v-.026c0-1.062-.764-1.619-1.956-1.619h-1.853v3.265h1.853zM141.29 54.375h3.575c2.125 0 3.446 1.205 3.446 3.031v.026c0 2.033-1.632 3.096-3.627 3.096h-1.801v2.915h-1.593v-9.068zm3.446 4.716c1.205 0 1.956-.674 1.956-1.619v-.026c0-1.062-.764-1.619-1.956-1.619h-1.853v3.265h1.853zM150.139 62.122l.958-1.14c.868.751 1.749 1.179 2.863 1.179.985 0 1.606-.467 1.606-1.141v-.025c0-.647-.363-.998-2.047-1.387-1.93-.466-3.019-1.036-3.019-2.707v-.026c0-1.555 1.296-2.63 3.096-2.63 1.322 0 2.371.402 3.291 1.141l-.855 1.204c-.816-.608-1.632-.933-2.461-.933-.933 0-1.477.479-1.477 1.075v.026c0 .699.415 1.011 2.164 1.425 1.917.467 2.902 1.153 2.902 2.656v.025c0 1.697-1.334 2.708-3.239 2.708a5.578 5.578 0 0 1-3.782-1.45z"/></g><g><path class="st2" d="M102.162 9.26a.07.07 0 0 1 .069.07v55.86a.07.07 0 0 1-.069.07H70.999a.07.07 0 0 1-.07-.07V9.33a.07.07 0 0 1 .07-.07h31.163m0-2H70.999a2.07 2.07 0 0 0-2.07 2.07v55.86a2.07 2.07 0 0 0 2.07 2.07h31.163a2.07 2.07 0 0 0 2.069-2.07V9.33a2.07 2.07 0 0 0-2.069-2.07z"/><path class="st2" d="M89.594 13.757h-6.027a1 1 0 1 1 0-2h6.027a1 1 0 1 1 0 2z"/><circle class="st2" cx="86.58" cy="62.53" r="1.149"/><path class="st2" d="M100.802 59.788H72.511V15.513h28.291v44.275zm-26.291-2h24.291V17.513H74.511v40.275z"/></g><g><path class="st2" d="M297.02 12.154V65.26h-53.106V12.154h53.106m0-2h-53.106a2 2 0 0 0-2 2V65.26a2 2 0 0 0 2 2h53.106a2 2 0 0 0 2-2V12.154a2 2 0 0 0-2-2z"/><path class="st2" d="M297.848 20.639h-54.762a1 1 0 1 1 0-2h54.762a1 1 0 1 1 0 2zM248.977 16.359h-1.674a1 1 0 1 1 0-2h1.674a1 1 0 1 1 0 2zM254.372 16.359h-1.674a1 1 0 1 1 0-2h1.674a1 1 0 1 1 0 2zM259.767 16.359h-1.674a1 1 0 1 1 0-2h1.674a1 1 0 1 1 0 2z"/><path class="st7" d="M259.342 50.538c-.267 0-.534-.096-.747-.29l-6.643-6.076a1.107 1.107 0 0 1-.045-1.593l6.643-6.794a1.108 1.108 0 1 1 1.584 1.55l-5.841 5.975 5.797 5.303a1.108 1.108 0 0 1-.748 1.925z"/><path class="st2" d="M259.343 35.452a1.108 1.108 0 0 1 .791 1.883l-5.841 5.974 5.797 5.303a1.108 1.108 0 0 1-1.495 1.636l-6.643-6.076a1.106 1.106 0 0 1-.045-1.592l6.643-6.794a1.11 1.11 0 0 1 .793-.334m0-1.8c-.788 0-1.526.31-2.078.873l-6.644 6.795a2.925 2.925 0 0 0-.828 2.117 2.92 2.92 0 0 0 .942 2.06l6.645 6.078a2.907 2.907 0 0 0 4.109-.185c.523-.57.793-1.313.759-2.09a2.887 2.887 0 0 0-.943-2.018l-4.423-4.046 4.541-4.644a2.889 2.889 0 0 0 .829-2.066 2.905 2.905 0 0 0-2.909-2.874z"/><path class="st7" d="M281.591 50.538a1.108 1.108 0 0 1-.792-1.883l5.841-5.976-5.797-5.302a1.108 1.108 0 0 1 1.495-1.636l6.643 6.075a1.107 1.107 0 0 1 .045 1.593l-6.643 6.795a1.106 1.106 0 0 1-.792.334z"/><path class="st2" d="M281.59 35.452c.267 0 .535.096.749.29l6.643 6.075c.222.203.352.487.359.787.009.301-.105.591-.315.806l-6.643 6.795a1.103 1.103 0 0 1-1.566.017 1.11 1.11 0 0 1-.018-1.567l5.842-5.976-5.797-5.302a1.108 1.108 0 0 1 .746-1.925m0-1.8a2.91 2.91 0 0 0-1.962 5.054l4.425 4.046-4.541 4.645a2.912 2.912 0 0 0 .046 4.112 2.892 2.892 0 0 0 2.033.829c.789 0 1.527-.311 2.079-.875l6.643-6.795c.55-.565.85-1.335.827-2.117a2.925 2.925 0 0 0-.942-2.061l-6.645-6.077a2.91 2.91 0 0 0-1.963-.761z"/><g><path class="st7" d="M267.883 50.261a1.108 1.108 0 0 1-1.018-1.545l5.355-12.464a1.108 1.108 0 1 1 2.036.874l-5.355 12.464c-.18.42-.588.671-1.018.671z"/><path class="st2" d="M273.24 35.581a1.109 1.109 0 0 1 1.017 1.544l-5.355 12.464a1.109 1.109 0 0 1-2.037-.874l5.355-12.464c.181-.419.591-.67 1.02-.67m0-1.8c-1.164 0-2.213.69-2.673 1.759l-5.355 12.465c-.307.713-.317 1.503-.029 2.225s.84 1.288 1.554 1.594a2.906 2.906 0 0 0 3.818-1.524l5.355-12.465a2.885 2.885 0 0 0 .029-2.225 2.888 2.888 0 0 0-1.554-1.595 2.92 2.92 0 0 0-1.145-.234z"/></g></g><g><path class="st8" d="M417.609 34.959l5.366 11.049"/><path transform="rotate(-25.901 420.341 40.482)" class="st2" d="M419.392 34.342h1.8v12.284h-1.8z"/><path transform="rotate(-57.853 463.515 40.065)" class="st2" d="M457.472 39.074h12.082v2.001h-12.082z"/><path class="st2" d="M458.005 59.719a4.394 4.394 0 0 1-2.996-1.19l-2.571-2.389a.9.9 0 1 1 1.225-1.318l2.571 2.389c.495.459 1.157.747 1.78.709.63-.002 1.2-.243 1.604-.679.856-.922.731-2.435-.279-3.373l-3.318-3.082a.9.9 0 1 1 1.225-1.318l3.318 3.082c1.737 1.613 1.905 4.267.373 5.916-.747.805-1.783 1.25-2.917 1.254l-.015-.001z"/><path class="st2" d="M452.49 63.28a4.395 4.395 0 0 1-2.996-1.191l-2.571-2.388a.9.9 0 1 1 1.225-1.318l2.571 2.388a2.597 2.597 0 0 0 1.771.709h.009c.63-.002 1.2-.243 1.605-.679.405-.436.603-1.021.559-1.65a2.602 2.602 0 0 0-.838-1.723l-2.423-2.25a.9.9 0 1 1 1.225-1.318l2.423 2.25a4.392 4.392 0 0 1 1.409 2.915c.08 1.131-.288 2.197-1.036 3.001-.747.805-1.783 1.25-2.917 1.254h-.016z"/><path class="st2" d="M447.393 67.262a4.41 4.41 0 0 1-2.996-1.191l-2.77-2.532a.899.899 0 1 1 1.214-1.328l2.775 2.537c1.015.943 2.534.955 3.39.035.855-.922.73-2.436-.28-3.374l-.509-.473a.9.9 0 1 1 1.225-1.318l.509.473c1.737 1.614 1.905 4.269.374 5.917-.776.835-1.843 1.254-2.932 1.254zM421.766 55.456h-.015c-1.134-.004-2.17-.449-2.917-1.254-1.531-1.648-1.364-4.303.373-5.917l4.043-3.762c1.738-1.612 4.397-1.585 5.929.063 1.531 1.648 1.364 4.303-.373 5.917l-4.043 3.762a4.397 4.397 0 0 1-2.997 1.191zm4.481-10.326c-.62 0-1.26.237-1.772.712l-4.042 3.762c-1.01.938-1.136 2.452-.28 3.374.405.436.974.677 1.604.679.608.022 1.285-.251 1.78-.709l4.043-3.762c1.01-.938 1.136-2.452.28-3.374a2.175 2.175 0 0 0-1.613-.682z"/><path class="st2" d="M436.766 67.261c-1.043 0-2.062-.401-2.804-1.201-1.466-1.579-1.306-4.12.355-5.664l2.367-2.273c1.673-1.554 4.219-1.526 5.685.053.716.771 1.068 1.791.992 2.874a4.198 4.198 0 0 1-1.348 2.789l-2.366 2.274a4.244 4.244 0 0 1-2.881 1.148zm2.795-8.491a2.43 2.43 0 0 0-1.642.66l-2.367 2.273c-.946.879-1.063 2.279-.272 3.131.79.852 2.194.837 3.13-.031l2.366-2.274c.47-.436.746-1.003.788-1.606a2.002 2.002 0 0 0-.515-1.523 2.002 2.002 0 0 0-1.488-.63zM426.561 59.686l-.016-.001c-1.134-.004-2.17-.449-2.917-1.254-.747-.804-1.115-1.87-1.036-3.001a4.392 4.392 0 0 1 1.409-2.915l3.317-3.082a.853.853 0 0 1 .101-.081l2.177-2.023c1.737-1.612 4.397-1.585 5.928.063 1.531 1.648 1.364 4.303-.373 5.917l-3.318 3.081a.957.957 0 0 1-.1.081l-2.178 2.023a4.382 4.382 0 0 1-2.994 1.192zm1.887-8.845l-3.222 2.993a2.596 2.596 0 0 0-.838 1.723c-.044.629.154 1.215.559 1.65.405.436.975.677 1.605.679h.009a2.6 2.6 0 0 0 1.771-.709l2.274-2.112a.874.874 0 0 1 .101-.081l3.222-2.992c1.01-.938 1.135-2.452.28-3.374-.856-.922-2.374-.908-3.385.03l-2.273 2.112c-.034.03-.068.056-.103.081z"/><path class="st2" d="M431.498 63.776c-1.089 0-2.156-.42-2.932-1.256-.747-.804-1.115-1.87-1.036-3.001a4.392 4.392 0 0 1 1.409-2.915l5.597-5.188a4.394 4.394 0 0 1 3.01-1.189c1.134.004 2.17.449 2.917 1.254.747.805 1.115 1.87 1.036 3.001a4.392 4.392 0 0 1-1.409 2.915l-5.597 5.188a4.407 4.407 0 0 1-2.995 1.191zm6.033-11.749c-.65 0-1.278.252-1.771.709l-5.597 5.188a2.594 2.594 0 0 0-.837 1.722c-.044.629.154 1.215.559 1.65.856.921 2.374.908 3.385-.03l5.597-5.188a2.6 2.6 0 0 0 .838-1.722c.044-.629-.154-1.215-.559-1.65s-.974-.677-1.604-.679h-.011zM462.158 54.84a4.404 4.404 0 0 1-2.996-1.192l-3.135-2.856 1.212-1.33 3.141 2.862c1.016.943 2.535.957 3.391.037.855-.922.73-2.436-.28-3.374l-18.772-16.239-12.306 8.293c-1.339.944-4.499 1.933-6.768-1.14-1.897-2.567.116-5.112 1.446-6.099l13.814-9.803c1.878-1.369 4.958-1.917 8.027-1.426 1.125.139 2.175.403 3.102.637 1.972.497 3.53.888 5.341.038l.766 1.629c-2.392 1.126-4.41.616-6.546.078-.919-.231-1.869-.471-2.915-.6-2.605-.419-5.232.018-6.723 1.105l-13.808 9.798c-.227.171-2.337 1.837-1.055 3.571 1.754 2.375 4.048.901 4.303.726l12.888-8.686a.897.897 0 0 1 1.092.065l19.317 16.711c1.761 1.636 1.928 4.29.397 5.938-.777.838-1.844 1.257-2.933 1.257z"/><g><path class="st8" d="M455.056 21.099l3.242-2.687a2.006 2.006 0 0 1 2.816.264l11.121 13.42a2.006 2.006 0 0 1-.264 2.816l-3.242 2.687a2.006 2.006 0 0 1-2.816-.264l-11.121-13.42a2.006 2.006 0 0 1 .264-2.816z"/><path class="st2" d="M459.571 19.755c.037 0 .106.009.156.07l11.121 13.42a.206.206 0 0 1-.026.282l-3.242 2.687a.19.19 0 0 1-.125.044.202.202 0 0 1-.157-.07l-11.121-13.42a.204.204 0 0 1 .026-.281l3.242-2.687a.186.186 0 0 1 .126-.045m0-1.8c-.45 0-.902.15-1.274.458l-3.242 2.687a2.006 2.006 0 0 0-.264 2.816l11.121 13.42c.394.476.966.722 1.542.722.45 0 .902-.15 1.273-.458l3.242-2.687a2.007 2.007 0 0 0 .264-2.816l-11.121-13.42a1.991 1.991 0 0 0-1.541-.722z"/></g><g><path class="st8" d="M428.75 21.099l-3.242-2.687a2.006 2.006 0 0 0-2.816.264l-11.121 13.42a2.006 2.006 0 0 0 .264 2.816l3.242 2.687a2.006 2.006 0 0 0 2.816-.264l11.121-13.42a2.007 2.007 0 0 0-.264-2.816z"/><path class="st2" d="M424.234 19.755a.19.19 0 0 1 .125.044l3.242 2.687a.204.204 0 0 1 .026.281l-11.12 13.42a.202.202 0 0 1-.157.07.19.19 0 0 1-.125-.044l-3.242-2.687a.206.206 0 0 1-.026-.282l11.12-13.42a.203.203 0 0 1 .157-.069m0-1.8a2 2 0 0 0-1.543.721l-11.121 13.42a2.006 2.006 0 0 0 .264 2.816l3.242 2.687a1.99 1.99 0 0 0 1.273.458c.576 0 1.149-.246 1.543-.722l11.121-13.42a2.006 2.006 0 0 0-.264-2.816l-3.242-2.687a1.99 1.99 0 0 0-1.273-.457z"/></g><path class="st2" d="M434.803 26.47c-1.488 0-2.886-.085-3.701-.344-2.245-.713-4.226-2.157-4.309-2.218l1.065-1.451c.018.013 1.832 1.332 3.789 1.954 1.603.51 6.997.145 8.94-.039l.169 1.793c-.478.045-3.35.305-5.953.305z"/></g><g><linearGradient id="SVGID_5_" gradientUnits="userSpaceOnUse" x1="229.268" y1="577.332" x2="787.222" y2="255.197"><stop offset="0" stop-color="#17c9c0"/><stop offset=".168" stop-color="#00a9d7"/><stop offset=".564" stop-color="#1cd0bb"/><stop offset="1" stop-color="#0fbec8"/></linearGradient><path fill="url(#SVGID_5_)" d="M739.905 288.02h-8.325v-4.65h3.675v-3.675h4.65z"/><linearGradient id="SVGID_6_" gradientUnits="userSpaceOnUse" x1="148.254" y1="431.66" x2="703.62" y2="111.019"><stop offset="0" stop-color="#17c9c0"/><stop offset=".168" stop-color="#00a9d7"/><stop offset=".564" stop-color="#1cd0bb"/><stop offset="1" stop-color="#0fbec8"/></linearGradient><path d="M725.516 288.02h-12.129v-4.65h12.129v4.65zm-18.193 0h-12.129v-4.65h12.129v4.65zm-18.194 0H677v-4.65h12.129v4.65zm-18.193 0h-12.129v-4.65h12.129v4.65zm-18.193 0h-12.129v-4.65h12.129v4.65zm-18.193 0h-12.129v-4.65h12.129v4.65zm-18.193 0h-12.129v-4.65h12.129v4.65zm-18.193 0h-12.129v-4.65h12.129v4.65zm-18.193 0h-12.129v-4.65h12.129v4.65zm-18.193 0h-12.129v-4.65h12.129v4.65zm-18.193 0h-12.129v-4.65h12.129v4.65zm-18.193 0h-12.129v-4.65h12.129v4.65zm-18.194 0H495.07v-4.65h12.129v4.65zm-18.193 0h-12.129v-4.65h12.129v4.65zm-18.193 0h-12.129v-4.65h12.129v4.65zm-18.193 0H440.49v-4.65h12.129v4.65zm-18.193 0h-12.129v-4.65h12.129v4.65zm-18.193 0h-12.129v-4.65h12.129v4.65zm-18.193 0h-12.129v-4.65h12.129v4.65zm-18.193 0h-12.129v-4.65h12.129v4.65zm-18.193 0h-12.129v-4.65h12.129v4.65zm-18.193 0h-12.129v-4.65h12.129v4.65zm-18.193 0h-12.129v-4.65h12.129v4.65zm-18.193 0h-12.129v-4.65h12.129v4.65zm-18.193 0h-12.129v-4.65h12.129v4.65zm-18.194 0H258.56v-4.65h12.129v4.65zm-18.193 0h-12.129v-4.65h12.129v4.65zm-18.193 0h-12.129v-4.65h12.129v4.65zm-18.193 0H203.98v-4.65h12.129v4.65zm-18.193 0h-12.129v-4.65h12.129v4.65zm-18.193 0h-12.129v-4.65h12.129v4.65zm-18.193 0h-12.129v-4.65h12.129v4.65zm-18.193 0h-12.129v-4.65h12.129v4.65zm-18.193 0h-12.129v-4.65h12.129v4.65zm-18.193 0H94.822v-4.65h12.129v4.65zm-18.193 0H76.629v-4.65h12.129v4.65z" fill="url(#SVGID_6_)"/><linearGradient id="SVGID_7_" gradientUnits="userSpaceOnUse" x1="61.478" y1="286.701" x2="619.439" y2="-35.439"><stop offset="0" stop-color="#17c9c0"/><stop offset=".168" stop-color="#00a9d7"/><stop offset=".564" stop-color="#1cd0bb"/><stop offset="1" stop-color="#0fbec8"/></linearGradient><path fill="url(#SVGID_7_)" d="M70.564 288.02H62.24v-8.325h4.649v3.675h3.675z"/><linearGradient id="SVGID_8_" gradientUnits="userSpaceOnUse" x1="38.168" y1="245.87" x2="578.476" y2="-66.077"><stop offset="0" stop-color="#17c9c0"/><stop offset=".168" stop-color="#00a9d7"/><stop offset=".564" stop-color="#1cd0bb"/><stop offset="1" stop-color="#0fbec8"/></linearGradient><path d="M66.889 273.561h-4.65v-12.266h4.65v12.266zm0-18.399h-4.65v-12.266h4.65v12.266zm0-18.398h-4.65v-12.267h4.65v12.267zm0-18.4h-4.65v-12.266h4.65v12.266zm0-18.398h-4.65v-12.267h4.65v12.267z" fill="url(#SVGID_8_)"/><linearGradient id="SVGID_9_" gradientUnits="userSpaceOnUse" x1="14.922" y1="206.065" x2="572.877" y2="-116.07"><stop offset="0" stop-color="#17c9c0"/><stop offset=".168" stop-color="#00a9d7"/><stop offset=".564" stop-color="#1cd0bb"/><stop offset="1" stop-color="#0fbec8"/></linearGradient><path fill="url(#SVGID_9_)" d="M66.889 181.566H62.24v-8.325h8.324v4.65h-3.675z"/><linearGradient id="SVGID_10_" gradientUnits="userSpaceOnUse" x1="98.525" y1="350.242" x2="653.89" y2="29.602"><stop offset="0" stop-color="#17c9c0"/><stop offset=".168" stop-color="#00a9d7"/><stop offset=".564" stop-color="#1cd0bb"/><stop offset="1" stop-color="#0fbec8"/></linearGradient><path d="M725.516 177.891h-12.129v-4.65h12.129v4.65zm-18.193 0h-12.129v-4.65h12.129v4.65zm-18.194 0H677v-4.65h12.129v4.65zm-18.193 0h-12.129v-4.65h12.129v4.65zm-18.193 0h-12.129v-4.65h12.129v4.65zm-18.193 0h-12.129v-4.65h12.129v4.65zm-18.193 0h-12.129v-4.65h12.129v4.65zm-18.193 0h-12.129v-4.65h12.129v4.65zm-18.193 0h-12.129v-4.65h12.129v4.65zm-18.193 0h-12.129v-4.65h12.129v4.65zm-18.193 0h-12.129v-4.65h12.129v4.65zm-18.193 0h-12.129v-4.65h12.129v4.65zm-18.193 0H495.07v-4.65h12.129v4.65zm-18.193 0h-12.129v-4.65h12.129v4.65zm-18.194 0h-12.129v-4.65h12.129v4.65zm-18.193 0H440.49v-4.65h12.129v4.65zm-18.193 0h-12.129v-4.65h12.129v4.65zm-18.193 0h-12.129v-4.65h12.129v4.65zm-18.193 0h-12.129v-4.65h12.129v4.65zm-18.193 0h-12.129v-4.65h12.129v4.65zm-18.193 0h-12.129v-4.65h12.129v4.65zm-18.193 0h-12.129v-4.65h12.129v4.65zm-18.193 0h-12.129v-4.65h12.129v4.65zm-18.193 0h-12.129v-4.65h12.129v4.65zm-18.193 0h-12.129v-4.65h12.129v4.65zm-18.194 0H258.56v-4.65h12.129v4.65zm-18.193 0h-12.129v-4.65h12.129v4.65zm-18.193 0h-12.129v-4.65h12.129v4.65zm-18.193 0H203.98v-4.65h12.129v4.65zm-18.193 0h-12.129v-4.65h12.129v4.65zm-18.193 0h-12.129v-4.65h12.129v4.65zm-18.193 0h-12.129v-4.65h12.129v4.65zm-18.193 0h-12.129v-4.65h12.129v4.65zm-18.193 0h-12.129v-4.65h12.129v4.65zm-18.193 0H94.822v-4.65h12.129v4.65zm-18.193 0H76.629v-4.65h12.129v4.65z" fill="url(#SVGID_10_)"/><linearGradient id="SVGID_11_" gradientUnits="userSpaceOnUse" x1="182.705" y1="496.7" x2="740.667" y2="174.561"><stop offset="0" stop-color="#17c9c0"/><stop offset=".168" stop-color="#00a9d7"/><stop offset=".564" stop-color="#1cd0bb"/><stop offset="1" stop-color="#0fbec8"/></linearGradient><path fill="url(#SVGID_11_)" d="M739.905 181.566h-4.65v-3.675h-3.675v-4.65h8.325z"/><linearGradient id="SVGID_12_" gradientUnits="userSpaceOnUse" x1="223.667" y1="527.338" x2="763.976" y2="215.391"><stop offset="0" stop-color="#17c9c0"/><stop offset=".168" stop-color="#00a9d7"/><stop offset=".564" stop-color="#1cd0bb"/><stop offset="1" stop-color="#0fbec8"/></linearGradient><path d="M739.905 273.561h-4.65v-12.267h4.65v12.267zm0-18.399h-4.65v-12.266h4.65v12.266zm0-18.398h-4.65v-12.267h4.65v12.267zm0-18.4h-4.65v-12.266h4.65v12.266zm0-18.399h-4.65v-12.266h4.65v12.266z" fill="url(#SVGID_12_)"/></g><g><path transform="translate(-.18 .156)" class="st2" d="M126.541 124.614h4.102v48.55h-4.102z"/><path transform="translate(-.173 .18)" class="st2" d="M155.042 130.445h4.102v42.719h-4.102z"/><path class="st2" d="M163.208 132.234l-6.149-10.62-6.124 10.634z"/><g><path class="st2" d="M126.512 288.057h4.102v36.285h-4.102z"/><path class="st2" d="M134.699 322.547l-6.136 10.626-6.136-10.626z"/><g><path class="st2" d="M155.008 288.097h4.102v39.077h-4.102z"/></g></g></g><g><path transform="translate(-.18 .364)" class="st2" d="M298.045 124.614h4.102v48.55h-4.102z"/><path transform="translate(-.173 .376)" class="st2" d="M326.546 130.445h4.102v42.719h-4.102z"/><path class="st2" d="M334.71 132.234l-6.148-10.62-6.124 10.634z"/><g><path class="st2" d="M298.015 288.057h4.102v36.285h-4.102z"/><path class="st2" d="M306.203 322.547l-6.137 10.626-6.136-10.626z"/><g><path class="st2" d="M326.511 288.097h4.102v39.077h-4.102z"/></g></g></g><g><path transform="translate(-.18 .572)" class="st2" d="M471.548 124.614h4.102v48.55h-4.102z"/></g><g><path transform="translate(-.173 .574)" class="st2" d="M500.049 130.445h4.102v42.719h-4.102z"/><path class="st2" d="M508.214 132.234l-6.148-10.62-6.125 10.634z"/></g><g><path class="st2" d="M471.519 288.057h4.102v36.285h-4.102z"/><path class="st2" d="M479.707 322.547l-6.137 10.626-6.136-10.626z"/><g><path class="st2" d="M500.015 288.097h4.102v39.077h-4.102z"/></g></g><g><path transform="translate(-.18 .787)" class="st2" d="M647.052 124.614h4.102v48.55h-4.102z"/><path class="st2" d="M673.577 173.166l-.014-12 4.102-.004.014 12-4.102.004zm-.019-17l-.014-12 4.102-.004.014 12-4.102.004zm-.02-17l-.01-8.719 4.102-.004.01 8.719-4.102.004z"/><path class="st2" d="M681.718 132.234l-6.149-10.62-6.124 10.634z"/></g><g><path class="st2" d="M294.455 204.578h2.394l6.467 14.802h-2.729l-1.491-3.548h-6.95l-1.512 3.548h-2.646l6.467-14.802zm3.695 8.965l-2.541-5.879-2.52 5.879h5.061zM307.14 204.683h5.795c3.443 0 5.585 1.952 5.585 4.913v.042c0 3.296-2.646 5.019-5.879 5.019h-2.918v4.724h-2.583v-14.698zm5.585 7.642c1.953 0 3.17-1.092 3.17-2.624v-.043c0-1.721-1.239-2.624-3.17-2.624h-3.002v5.291h3.002zM322.617 204.683h2.583v14.697h-2.583v-14.697zM338.031 204.683h6.551c1.848 0 3.296.546 4.241 1.47.777.798 1.218 1.89 1.218 3.17v.043c0 2.414-1.449 3.863-3.485 4.451l3.968 5.563h-3.065l-3.611-5.123h-3.233v5.123h-2.583v-14.697zm6.361 7.286c1.848 0 3.023-.967 3.023-2.457v-.042c0-1.575-1.134-2.436-3.044-2.436h-3.758v4.935h3.779zM359.722 204.578h2.394l6.467 14.802h-2.729l-1.491-3.548h-6.95l-1.512 3.548h-2.646l6.467-14.802zm3.696 8.965l-2.541-5.879-2.52 5.879h5.061zM374.129 207.076h-4.661v-2.394h11.926v2.394h-4.661v12.304h-2.604v-12.304zM385.427 204.683h10.897v2.31h-8.314v3.821h7.37v2.31h-7.37v3.947h8.419v2.31h-11.002v-14.698zM408.401 204.683h2.583v12.346h7.727v2.352h-10.309v-14.698zM422.849 204.683h2.583v14.697h-2.583v-14.697zM430.661 204.683h2.75l4.472 6.95 4.472-6.95h2.75v14.697h-2.583v-10.54l-4.64 6.929h-.084l-4.598-6.887v10.498h-2.541v-14.697zM450.338 204.683h2.583v14.697h-2.583v-14.697zM461.761 207.076H457.1v-2.394h11.926v2.394h-4.661v12.304h-2.604v-12.304zM473.206 204.683h2.583v14.697h-2.583v-14.697zM481.018 204.683h2.394l7.874 10.162v-10.162h2.541v14.697h-2.163l-8.104-10.456v10.456h-2.541v-14.697zM498.259 212.073v-.042c0-4.115 3.149-7.601 7.58-7.601 2.562 0 4.136.714 5.648 1.995l-1.638 1.952c-1.134-.966-2.247-1.575-4.115-1.575-2.708 0-4.766 2.373-4.766 5.187v.042c0 3.023 1.995 5.249 4.997 5.249 1.386 0 2.646-.44 3.548-1.112v-2.751h-3.758v-2.247h6.257v6.174c-1.449 1.238-3.527 2.288-6.131 2.288-4.599 0-7.622-3.276-7.622-7.559z"/></g><g><path class="st2" d="M187.979 237.018h1.264v10.035h6.307v1.169h-7.571v-11.204zM198.986 237.018h1.264v11.204h-1.264v-11.204zM204.522 237.018h1.281l4.082 6.114 4.082-6.114h1.281v11.204h-1.265v-9.075l-4.082 6.002h-.064l-4.082-5.986v9.06h-1.232v-11.205zM219.514 237.018h1.264v11.204h-1.264v-11.204zM228.011 238.186h-3.761v-1.168h8.803v1.168h-3.761v10.036h-1.281v-10.036zM250.461 245.39h-2.081l-.48 2.833h-1.12l.48-2.833h-3.057l-.48 2.833h-1.12l.48-2.833h-1.745v-1.104h1.937l.576-3.394h-1.889v-1.104h2.081l.48-2.769h1.121l-.48 2.769h3.057l.48-2.769h1.12l-.48 2.769h1.745v1.104h-1.937l-.576 3.394h1.889v1.104zm-6.067-1.089h3.057l.576-3.425h-3.041l-.592 3.425zM264.331 236.938h1.185l5.106 11.284h-1.36l-1.313-2.961h-6.098l-1.328 2.961h-1.297l5.105-11.284zm3.121 7.171l-2.545-5.698-2.561 5.698h5.106zM273.817 237.018h4.194c2.529 0 4.194 1.344 4.194 3.553v.032c0 2.417-2.017 3.666-4.402 3.666h-2.721v3.953h-1.264v-11.204zm4.034 6.098c1.857 0 3.073-.992 3.073-2.465v-.032c0-1.601-1.2-2.433-3.009-2.433h-2.833v4.93h2.769zM285.609 237.018h1.264v11.204h-1.264v-11.204zM296.937 237.018h4.818c1.376 0 2.481.416 3.185 1.12.544.544.864 1.328.864 2.209v.032c0 1.856-1.281 2.944-3.041 3.265l3.441 4.578h-1.552l-3.249-4.354h-3.201v4.354h-1.264v-11.204zm4.706 5.714c1.681 0 2.881-.864 2.881-2.305v-.032c0-1.377-1.056-2.209-2.865-2.209h-3.458v4.546h3.442zM309.497 237.018h8.099v1.152h-6.835v3.825h6.115v1.152h-6.115v3.922h6.915v1.152h-8.179v-11.203zM331.421 248.558l-1.489-1.328c-.944.736-2.145 1.185-3.521 1.185-3.409 0-5.698-2.674-5.698-5.763v-.032c0-3.089 2.321-5.794 5.73-5.794 3.409 0 5.698 2.673 5.698 5.763v.031a5.966 5.966 0 0 1-1.329 3.746l1.473 1.248-.864.944zm-2.385-2.144l-2.097-1.793.848-.944 2.097 1.905c.608-.801.944-1.81.944-2.93v-.032c0-2.545-1.857-4.626-4.418-4.626s-4.386 2.049-4.386 4.595v.031c0 2.545 1.857 4.626 4.418 4.626.993 0 1.889-.304 2.594-.832zM335.624 243.533v-6.515h1.265v6.435c0 2.417 1.296 3.777 3.425 3.777 2.065 0 3.377-1.249 3.377-3.697v-6.515h1.264v6.418c0 3.266-1.873 4.962-4.674 4.962-2.768 0-4.657-1.696-4.657-4.865zM348.936 237.018h8.099v1.152H350.2v3.825h6.115v1.152H350.2v3.922h6.915v1.152h-8.179v-11.203zM359.912 246.59l.784-.929c1.168 1.057 2.289 1.585 3.842 1.585 1.505 0 2.497-.8 2.497-1.904v-.032c0-1.04-.56-1.633-2.913-2.129-2.577-.561-3.761-1.393-3.761-3.233v-.032c0-1.761 1.552-3.057 3.681-3.057 1.633 0 2.801.464 3.938 1.376l-.736.977c-1.04-.849-2.081-1.217-3.233-1.217-1.457 0-2.385.801-2.385 1.81v.031c0 1.057.576 1.649 3.041 2.177 2.497.545 3.649 1.457 3.649 3.17v.032c0 1.92-1.601 3.169-3.825 3.169-1.778-.001-3.235-.594-4.579-1.794zM374.601 238.186h-3.761v-1.168h8.803v1.168h-3.761v10.036h-1.281v-10.036zM382.024 246.59l.784-.929c1.168 1.057 2.289 1.585 3.842 1.585 1.505 0 2.497-.8 2.497-1.904v-.032c0-1.04-.56-1.633-2.913-2.129-2.577-.561-3.761-1.393-3.761-3.233v-.032c0-1.761 1.552-3.057 3.681-3.057 1.633 0 2.801.464 3.938 1.376l-.736.977c-1.04-.849-2.081-1.217-3.233-1.217-1.457 0-2.385.801-2.385 1.81v.031c0 1.057.576 1.649 3.041 2.177 2.497.545 3.649 1.457 3.649 3.17v.032c0 1.92-1.601 3.169-3.825 3.169-1.778-.001-3.235-.594-4.579-1.794zM399.784 237.018h4.194c2.529 0 4.194 1.344 4.194 3.553v.032c0 2.417-2.017 3.666-4.402 3.666h-2.721v3.953h-1.264v-11.204zm4.033 6.098c1.857 0 3.073-.992 3.073-2.465v-.032c0-1.601-1.2-2.433-3.009-2.433h-2.833v4.93h2.769zM411.464 237.018h8.099v1.152h-6.835v3.825h6.115v1.152h-6.115v3.922h6.915v1.152h-8.179v-11.203zM423.176 237.018h4.818c1.376 0 2.481.416 3.185 1.12.544.544.864 1.328.864 2.209v.032c0 1.856-1.281 2.944-3.041 3.265l3.441 4.578h-1.552l-3.249-4.354h-3.201v4.354h-1.264v-11.204zm4.706 5.714c1.681 0 2.881-.864 2.881-2.305v-.032c0-1.377-1.056-2.209-2.865-2.209h-3.458v4.546h3.442zM441.528 237.018h3.889c3.521 0 5.955 2.417 5.955 5.57v.031c0 3.153-2.433 5.603-5.955 5.603h-3.889v-11.204zm1.264 1.168v8.867h2.625c2.833 0 4.642-1.92 4.642-4.401v-.032c0-2.48-1.809-4.434-4.642-4.434h-2.625zM458.441 236.938h1.185l5.106 11.284h-1.36l-1.313-2.961h-6.098l-1.328 2.961h-1.297l5.105-11.284zm3.121 7.171l-2.545-5.698-2.561 5.698h5.106zM469.673 243.789l-4.658-6.771h1.537l3.778 5.602 3.81-5.602h1.473l-4.658 6.754v4.45h-1.281v-4.433zM482.362 235.449h1.136l-7.427 14.822h-1.136l7.427-14.822zM485.111 237.018h1.377l3.201 9.331 3.073-9.363h1.041l3.073 9.363 3.201-9.331h1.329l-4.002 11.284h-1.072l-3.073-9.092-3.089 9.092h-1.056l-4.003-11.284zM504.68 237.018h8.099v1.152h-6.835v3.825h6.115v1.152h-6.115v3.922h6.915v1.152h-8.179v-11.203zM516.392 237.018h8.099v1.152h-6.835v3.825h6.115v1.152h-6.115v3.922h6.915v1.152h-8.179v-11.203zM528.104 237.018h1.264v6.69l6.435-6.69h1.633l-4.802 4.897 5.01 6.307h-1.585l-4.306-5.426-2.385 2.417v3.009h-1.264v-11.204zM546.106 235.449h1.136l-7.427 14.822h-1.136l7.427-14.822zM549.719 237.018H551l4.082 6.114 4.082-6.114h1.281v11.204h-1.265v-9.075l-4.082 6.002h-.064l-4.082-5.986v9.06h-1.232v-11.205zM564.103 242.652v-.032c0-3.089 2.321-5.794 5.73-5.794 3.409 0 5.698 2.673 5.698 5.763v.031c0 3.09-2.321 5.795-5.73 5.795-3.409 0-5.698-2.674-5.698-5.763zm10.116 0v-.032c0-2.545-1.857-4.626-4.418-4.626s-4.386 2.049-4.386 4.595v.031c0 2.545 1.857 4.626 4.418 4.626s4.386-2.049 4.386-4.594zM579.191 237.018h1.184l7.059 8.979v-8.979h1.233v11.204h-1.009l-7.235-9.188v9.188h-1.232v-11.204zM595.784 238.186h-3.761v-1.168h8.803v1.168h-3.761v10.036h-1.281v-10.036zM604.183 237.018h1.264v4.978h6.467v-4.978h1.265v11.204h-1.265v-5.042h-6.467v5.042h-1.264v-11.204z"/></g><path class="st2" d="M738.254 410.076c-.03-.408-.933-9.992-19.026-9.992-22.96 0-275.782-.254-289.979-1.061-16.708-.95-24.801-2.554-28.177-6.512-3.377 3.958-11.469 5.562-28.177 6.512-14.197.807-267.018 1.061-289.979 1.061-18.093 0-18.996 9.584-19.026 9.992l-4.096-.225c.028-.566.936-13.869 23.122-13.869 38.657 0 276.536-.304 289.746-1.055 26.359-1.499 26.359-4.854 26.359-9.1h4.102c0 4.246 0 7.601 26.359 9.1 13.21.751 251.089 1.055 289.746 1.055 22.186 0 23.094 13.303 23.122 13.869l-4.096.225z"/><g><circle cx="675.569" cy="175.567" r="9.185" fill="#ff414e"/><path class="st2" d="M675.569 186.252c-5.892 0-10.685-4.794-10.685-10.686s4.793-10.685 10.685-10.685 10.685 4.793 10.685 10.685-4.793 10.686-10.685 10.686zm0-18.37c-4.238 0-7.685 3.447-7.685 7.685 0 4.238 3.448 7.686 7.685 7.686 4.238 0 7.685-3.447 7.685-7.686 0-4.238-3.447-7.685-7.685-7.685z"/><g><path class="st1" d="M675.553 176.349l-2.836 2.885-.815-.815 2.868-2.836-2.868-2.836.847-.848 2.836 2.885 2.836-2.885.815.815-2.885 2.836 2.885 2.836-.848.848-2.835-2.885z"/><path class="st1" d="M678.385 179.943l-2.832-2.882-2.833 2.882-1.527-1.526 2.866-2.834-2.866-2.834 1.559-1.56 2.833 2.882 2.833-2.882 1.528 1.528-2.881 2.833 2.882 2.832-1.562 1.561zm-5.773-1.522l.102.103 2.839-2.888 2.839 2.888.134-.135-2.887-2.838 2.888-2.839-.102-.103-2.839 2.888-2.839-2.888-.135.136 2.87 2.838-2.87 2.838z"/></g></g><g><path class="st2" d="M702.666 139.21h5.512l-.22.792h-4.643l-.704 2.63h4.148l-.22.792h-4.137l-.726 2.695h4.698l-.209.792h-5.567l2.068-7.701zM711.741 142.929l-1.936-3.719h.957l1.606 3.146 3.07-3.146h1.122l-3.807 3.84 2.002 3.861h-.957l-1.672-3.289-3.202 3.289h-1.133l3.95-3.982zM716.999 143.863c0-1.298.561-2.541 1.452-3.432.825-.825 1.947-1.354 3.168-1.354 1.43 0 2.387.693 2.904 1.65l-.748.462c-.473-.804-1.1-1.31-2.233-1.31-.924 0-1.771.407-2.409 1.034-.748.76-1.221 1.826-1.221 2.916 0 1.484 1.012 2.409 2.409 2.409 1.034 0 1.727-.407 2.387-1.045l.583.571c-.715.716-1.628 1.287-3.014 1.287-1.815.003-3.278-1.207-3.278-3.188zM727.229 139.21h5.512l-.22.792h-4.643l-.704 2.63h4.148l-.22.792h-4.137l-.726 2.695h4.698l-.209.792h-5.567l2.068-7.701zM735.094 139.21h5.512l-.22.792h-4.643l-.704 2.63h4.148l-.22.792h-4.137l-.726 2.695h4.698l-.209.792h-5.567l2.068-7.701zM742.959 139.21h1.859c1.287 0 2.332.363 3.003 1.023.55.55.836 1.276.836 2.211 0 1.178-.429 2.212-1.21 3.004-.924.924-2.31 1.463-3.949 1.463h-2.607l2.068-7.701zm1.804.803h-1.144l-1.639 6.096h1.628c1.287 0 2.398-.43 3.179-1.211.616-.615.968-1.452.968-2.398 0-.726-.231-1.298-.649-1.705-.505-.507-1.319-.782-2.343-.782zM749.779 145.558l.66-.517c.649.792 1.408 1.199 2.542 1.199 1.111 0 1.947-.605 1.947-1.441 0-.594-.396-.946-1.584-1.408-1.419-.562-2.112-1.056-2.112-2.058 0-.527.198-1.022.594-1.408.517-.517 1.298-.825 2.244-.825 1.199 0 2.145.484 2.729 1.167l-.638.571c-.561-.616-1.265-.957-2.167-.957-1.155 0-1.848.649-1.848 1.354 0 .627.495.946 1.705 1.419 1.32.506 1.991 1.045 1.991 2.035 0 .583-.242 1.09-.627 1.485-.539.539-1.353.848-2.288.848-1.421-.001-2.488-.551-3.148-1.464zM704.349 156.919H702.27l-.803 2.992h-.869l2.068-7.701h2.772c.968 0 1.694.242 2.167.704.33.341.506.803.506 1.331 0 .671-.253 1.232-.682 1.673-.506.506-1.32.792-2.134.924l1.584 3.069h-1.001l-1.529-2.992zm.22-.781c1.012 0 1.76-.275 2.189-.704.297-.309.462-.671.462-1.122 0-.33-.11-.627-.319-.836-.297-.298-.781-.463-1.507-.463h-2.068l-.847 3.125h2.09zM713.875 152.155h.836l1.43 7.756h-.891l-.352-2.035h-4.203l-1.452 2.035h-.957l5.589-7.756zm.881 4.929l-.693-3.938-2.816 3.938h3.509zM720.905 153.013h-2.596l.22-.803h6.062l-.22.803h-2.596l-1.848 6.898h-.869l1.847-6.898zM726.756 152.21h5.512l-.22.792h-4.643l-.704 2.63h4.148l-.22.792h-4.137l-.726 2.695h4.698l-.209.792h-5.567l2.068-7.701zM738.163 152.21h.869l-1.848 6.898h4.335l-.22.803h-5.204l2.068-7.701zM745.599 152.21h.869l-2.068 7.701h-.869l2.068-7.701zM749.405 152.21h.814l1.661 4.203 3.927-4.203h.968l-2.068 7.701h-.88l1.672-6.238-3.906 4.126h-.044l-1.683-4.114-1.672 6.227h-.858l2.069-7.702zM759.723 152.21h.869l-2.068 7.701h-.869l2.068-7.701zM765.135 153.013h-2.596l.22-.803h6.062l-.22.803h-2.596l-1.848 6.898h-.869l1.847-6.898z"/></g></svg>